<svg width="21" height="15" viewBox="0 0 21 15" fill="none" xmlns="http://www.w3.org/2000/svg">
<path d="M19.131 0.287109H1.86896C0.8384 0.287109 0 1.12555 0 2.15607V6.28044C0 7.31099 0.8384 8.1494 1.86896 8.1494H19.131C20.1616 8.1494 21 7.31099 21 6.28044V2.15607C21 1.12555 20.1616 0.287109 19.131 0.287109ZM18.1314 7.51308H2.86847V7.148C2.86847 6.73308 3.20607 6.39548 3.62098 6.39548H17.3789C17.7938 6.39548 18.1314 6.73308 18.1314 7.148V7.51308ZM20.3636 6.28048C20.3636 6.96015 19.8107 7.51308 19.131 7.51308H18.7678V7.148C18.7678 6.38215 18.1447 5.75913 17.3789 5.75913H3.62098C2.85514 5.75913 2.23211 6.38215 2.23211 7.148V7.51308H1.86896C1.18929 7.51308 0.636357 6.96015 0.636357 6.28048V2.15607C0.636357 1.4764 1.18929 0.923467 1.86896 0.923467H19.131C19.8107 0.923467 20.3636 1.4764 20.3636 2.15607V6.28048ZM17.812 2.44962C17.2291 2.44962 16.7549 2.92384 16.7549 3.50671C16.7549 4.08959 17.2291 4.56381 17.812 4.56381C18.3949 4.56381 18.8691 4.08959 18.8691 3.50671C18.8691 2.92384 18.3949 2.44962 17.812 2.44962ZM17.812 3.92745C17.58 3.92745 17.3913 3.7387 17.3913 3.50671C17.3913 3.27473 17.58 3.08597 17.812 3.08597C18.044 3.08597 18.2328 3.27469 18.2328 3.50671C18.2328 3.73874 18.044 3.92745 17.812 3.92745ZM13.8963 10.192C13.8677 9.30673 13.1925 8.7036 13.1638 8.67837C13.0317 8.56238 12.8307 8.57538 12.7147 8.70737C12.5987 8.8394 12.6117 9.04042 12.7437 9.15641C12.7487 9.1608 13.2407 9.60947 13.2602 10.2125C13.2725 10.5927 13.0937 10.9704 12.7287 11.3353C11.8875 12.1766 11.9355 13.0338 12.124 13.6048C12.3209 14.2014 12.7106 14.6014 12.7271 14.6181C12.7893 14.6812 12.8712 14.7128 12.9531 14.7128C13.0335 14.7128 13.1139 14.6824 13.1759 14.6217C13.3012 14.4991 13.3033 14.2979 13.1811 14.1722C13.178 14.169 12.8687 13.8472 12.7222 13.3867C12.5389 12.8103 12.6925 12.2715 13.1787 11.7853C13.6731 11.2911 13.9145 10.755 13.8963 10.192ZM15.3106 10.8273C15.2919 10.2469 14.8718 9.86147 14.8239 9.81947C14.6919 9.70348 14.4909 9.71648 14.3749 9.84847C14.2589 9.9805 14.2719 10.1815 14.4039 10.2975C14.4065 10.2998 14.6646 10.54 14.6745 10.8479C14.6808 11.0424 14.5847 11.2403 14.3889 11.4361C13.9557 11.8693 13.8147 12.4034 13.9919 12.94C14.1182 13.3227 14.3601 13.5755 14.3873 13.603C14.4496 13.6662 14.5317 13.6979 14.6139 13.6979C14.6946 13.6979 14.7753 13.6674 14.8373 13.6064C14.9625 13.483 14.9639 13.2816 14.8406 13.1564C14.839 13.1548 14.6759 12.9821 14.5962 12.7406C14.494 12.4311 14.5734 12.1516 14.839 11.886C15.1641 11.5609 15.3228 11.2046 15.3106 10.8273ZM11.732 10.8273C11.7133 10.2469 11.2932 9.86147 11.2453 9.81947C11.1133 9.70348 10.9123 9.71648 10.7963 9.84847C10.6803 9.9805 10.6933 10.1815 10.8253 10.2975C10.8279 10.2998 11.0861 10.54 11.096 10.8479C11.1023 11.0424 11.0062 11.2403 10.8104 11.4361C10.3772 11.8693 10.2361 12.4034 10.4133 12.94C10.5397 13.3227 10.7816 13.5755 10.8088 13.603C10.871 13.6662 10.9532 13.6979 11.0354 13.6979C11.1161 13.6979 11.1968 13.6674 11.2587 13.6064C11.3839 13.483 11.3854 13.2816 11.262 13.1564C11.2604 13.1548 11.0974 12.9821 11.0177 12.7406C10.9155 12.4311 10.9949 12.1516 11.2604 11.886C11.5855 11.5609 11.7442 11.2046 11.732 10.8273ZM7.97028 10.8342C7.88242 10.682 7.68785 10.6299 7.53564 10.7177L6.7401 11.177V10.1619C6.7401 9.98612 6.59765 9.84367 6.4219 9.84367C6.24615 9.84367 6.1037 9.98612 6.1037 10.1619V11.177L5.22453 10.6694C5.07232 10.5815 4.87774 10.6337 4.78989 10.7859C4.70203 10.938 4.75416 11.1327 4.90633 11.2205L5.7855 11.7281L4.90633 12.2357C4.75416 12.3235 4.70199 12.5181 4.78989 12.6703C4.84883 12.7724 4.9558 12.8294 5.06572 12.8294C5.11969 12.8294 5.17441 12.8157 5.22453 12.7867L6.1037 12.2792V13.1978C6.1037 13.3735 6.24615 13.516 6.4219 13.516C6.59761 13.516 6.7401 13.3735 6.7401 13.1978V12.2791L7.53564 12.7384C7.58576 12.7673 7.64043 12.7811 7.69445 12.7811C7.80441 12.7811 7.91138 12.724 7.97028 12.622C8.05814 12.4698 8.006 12.2752 7.85384 12.1873L7.0583 11.728L7.85384 11.2688C8.006 11.181 8.05814 10.9864 7.97028 10.8342Z" fill="#6D3AD6"/>
</svg>
