<svg width="20" height="15" viewBox="0 0 20 15" fill="none" xmlns="http://www.w3.org/2000/svg">
<path d="M19.5279 1.19004C19.409 1.19004 19.3105 1.28848 19.3105 1.40742C19.3105 1.65762 19.007 1.78887 18.8266 1.6125C18.6338 1.42793 18.3877 1.30488 18.117 1.24336C18.1252 1.17363 18.1334 1.10801 18.1416 1.03828C18.1908 0.529688 17.8012 0.0703125 17.2721 0.0703125H3.28574C2.75664 0.0703125 2.36699 0.529688 2.41621 1.03828C2.42441 1.10801 2.43262 1.17773 2.44082 1.24746C2.17012 1.31309 1.92402 1.44023 1.72715 1.6207C1.55488 1.78887 1.24727 1.66582 1.24727 1.41152C1.24727 1.29258 1.14883 1.19414 1.02988 1.19414C0.910938 1.19414 0.8125 1.29258 0.8125 1.41152C0.8125 2.05547 1.5877 2.36719 2.03066 1.93652C2.15781 1.81758 2.32188 1.73145 2.50234 1.68223C2.92891 4.11445 4.44648 6.13242 6.52598 7.24805L5.85332 9.15938H4.50391C4.04043 9.15938 3.66309 9.53672 3.66309 10.0002C3.66309 10.4637 4.04043 10.841 4.50391 10.841H5.25859L4.19219 13.8762C4.04043 14.3068 4.26602 14.7949 4.70488 14.9508C5.13965 15.1025 5.62363 14.8729 5.77949 14.434L7.03867 10.8451H9.42578V14.1223C9.42578 14.5857 9.80313 14.9631 10.2666 14.9631C10.7301 14.9631 11.1074 14.5857 11.1074 14.1223V10.8451H13.4945L14.7537 14.4381C14.9096 14.8811 15.3977 15.1066 15.8283 14.9549C16.2672 14.8031 16.4969 14.3191 16.341 13.8803L15.2746 10.8451H16.0293C16.4928 10.8451 16.8701 10.4678 16.8701 10.0043C16.8701 9.54082 16.4928 9.16348 16.0293 9.16348H14.7004L14.0277 7.25215C16.1072 6.14062 17.6248 4.12266 18.0514 1.68223C18.2318 1.73145 18.3959 1.81758 18.523 1.93652C18.9742 2.37539 19.7453 2.05547 19.7453 1.41563C19.7453 1.28438 19.6469 1.19004 19.5279 1.19004ZM6.91973 7.44492C7.16172 7.55977 7.41191 7.66231 7.67031 7.74844L7.17402 9.15527H6.3168L6.91973 7.44492ZM9.43398 8.13809V9.15527H7.6375L8.08457 7.87969C8.52344 8.00273 8.97461 8.09297 9.43398 8.13809ZM12.465 7.87969L12.9121 9.15527H11.1156V8.13809C11.5832 8.09297 12.0303 8.00273 12.465 7.87969ZM10.6809 8.175V9.15938H9.87285V8.175C10.1518 8.1873 10.3979 8.1873 10.6809 8.175ZM5.37344 14.2863C5.29961 14.4955 5.06582 14.6104 4.85664 14.5365C4.64746 14.4627 4.53672 14.2289 4.61055 14.0197L5.72617 10.841H6.5834L5.37344 14.2863ZM10.6809 14.1182C10.6809 14.3396 10.5004 14.5242 10.2748 14.5242C10.0492 14.5242 9.86875 14.3438 9.86875 14.1182V10.841H10.6809V14.1182ZM15.9432 14.0197C16.017 14.2289 15.9063 14.4586 15.6971 14.5365C15.4961 14.6063 15.2541 14.4914 15.1803 14.2863L13.9703 10.841H14.8275L15.9432 14.0197ZM16.4518 10.0002C16.4518 10.2217 16.2713 10.4062 16.0457 10.4062H4.50801C4.28652 10.4062 4.10195 10.2258 4.10195 10.0002C4.10195 9.77461 4.28242 9.59414 4.50801 9.59414H16.0498C16.2713 9.59414 16.4518 9.77461 16.4518 10.0002ZM14.2369 9.15938H13.3797L12.8834 7.75254C13.1418 7.6623 13.392 7.55977 13.634 7.44902L14.2369 9.15938ZM10.0943 7.74434C6.3127 7.6541 3.20371 4.79121 2.84688 0.997266C2.82227 0.738867 3.01914 0.505078 3.28164 0.505078H17.268C17.5346 0.505078 17.7273 0.738867 17.7027 0.997266C17.3336 4.94707 13.999 7.83867 10.0943 7.74434Z" fill="#6C2AD2"/>
</svg>
