<svg width="21" height="21" viewBox="0 0 21 21" fill="none" xmlns="http://www.w3.org/2000/svg">
<path d="M20.9593 11.7198C20.9245 11.6617 20.8704 11.6178 20.8064 11.5958C20.7425 11.5738 20.6728 11.575 20.6097 11.5994L19.2151 12.1367C17.2292 12.9086 15.5722 14.3451 14.5264 16.2015C14.6028 14.7461 15.0064 13.3267 15.7071 12.0489C16.4078 10.771 17.3876 9.66756 18.5737 8.82063L18.8818 8.60112C18.937 8.56157 18.9765 8.50372 18.9931 8.43784C19.0097 8.37196 19.0024 8.30232 18.9725 8.2413C18.9426 8.18029 18.892 8.13186 18.8298 8.10462C18.7675 8.07737 18.6977 8.07309 18.6326 8.09252C16.355 8.76882 14.3842 10.2177 13.0594 12.1898C13.3751 10.0839 14.2213 8.09281 15.5185 6.40399L16.5376 5.06852C16.5789 5.01435 16.5996 4.94727 16.596 4.87924C16.5924 4.81122 16.5648 4.7467 16.518 4.6972C16.4712 4.6477 16.4083 4.61645 16.3406 4.60904C16.2729 4.60162 16.2047 4.61853 16.1483 4.65673C14.1645 5.99486 12.5686 7.83252 11.5218 9.98433C10.9296 7.12843 9.77004 4.4205 8.11188 2.02106C7.64928 1.35259 7.14942 0.710686 6.61465 0.098413C6.56949 0.0463911 6.50713 0.0123398 6.43895 0.00247279C6.37078 -0.00739422 6.30132 0.00758082 6.24327 0.0446653C6.18522 0.0817498 6.14243 0.138471 6.12272 0.20448C6.10301 0.270488 6.1077 0.341382 6.13591 0.404225L7.18591 2.75475C8.05516 4.69795 8.62464 6.76176 8.87494 8.87576C7.85285 7.19649 6.48054 5.75747 4.85163 4.65689C4.79523 4.61869 4.72709 4.60179 4.65938 4.6092C4.59166 4.61662 4.52879 4.64786 4.482 4.69736C4.4352 4.74686 4.40753 4.81139 4.40392 4.87941C4.40031 4.94743 4.42101 5.01452 4.46231 5.06869L5.48147 6.40416C6.77861 8.09293 7.62486 10.0839 7.9406 12.1898C6.61577 10.2175 4.64503 8.76857 2.3674 8.09219C2.30228 8.07268 2.23234 8.07691 2.17005 8.10413C2.10775 8.13135 2.05713 8.17979 2.02721 8.24082C1.99728 8.30186 1.98998 8.37154 2.00661 8.43746C2.02324 8.50338 2.06272 8.56125 2.11802 8.60079L2.4263 8.8203C3.61235 9.66726 4.59218 10.7707 5.29289 12.0487C5.99361 13.3266 6.39717 14.7461 6.47355 16.2015C5.42779 14.345 3.7708 12.9086 1.78481 12.1367L0.39028 11.5992C0.327161 11.5749 0.257487 11.5736 0.193543 11.5957C0.129599 11.6177 0.0754896 11.6616 0.0407543 11.7197C0.00601893 11.7777 -0.00711197 11.8462 0.00367646 11.9129C0.0144649 11.9797 0.0484799 12.0405 0.0997249 12.0847L1.70622 13.4674C2.64686 14.2759 3.40165 15.2782 3.91891 16.4056C4.43617 17.533 4.70369 18.7588 4.70315 19.9992V20.4258H2.85745C2.81975 20.4258 2.78241 20.4332 2.74758 20.4476C2.71275 20.462 2.6811 20.4832 2.65443 20.5098C2.62777 20.5365 2.60663 20.5682 2.5922 20.603C2.57777 20.6378 2.57034 20.6752 2.57034 20.7129C2.57034 20.7506 2.57777 20.7879 2.5922 20.8227C2.60663 20.8576 2.62777 20.8892 2.65443 20.9159C2.6811 20.9425 2.71275 20.9637 2.74758 20.9781C2.78241 20.9925 2.81975 21 2.85745 21H18.1427C18.2188 21 18.2918 20.9697 18.3457 20.9159C18.3995 20.862 18.4298 20.789 18.4298 20.7129C18.4298 20.6367 18.3995 20.5637 18.3457 20.5098C18.2918 20.456 18.2188 20.4258 18.1427 20.4258H16.2968C16.2759 19.4812 16.3884 18.5385 16.6308 17.6254C17.0937 16.0092 18.0194 14.5638 19.2937 13.4674L20.9006 12.0847C20.9517 12.0405 20.9857 11.9797 20.9964 11.9129C21.0072 11.8462 20.994 11.7778 20.9593 11.7198ZM5.27737 20.4258V19.9992C5.278 18.6762 4.99272 17.3687 4.44108 16.1663C3.88944 14.9638 3.08447 13.8947 2.08127 13.0323L1.73559 12.7348C3.16192 13.3243 4.40528 14.2834 5.33753 15.5133C6.26978 16.7433 6.8572 18.1996 7.03924 19.7321C7.0656 19.9627 7.08272 20.1939 7.09059 20.4259L5.27737 20.4258ZM9.0933 20.4258H7.66694C7.66497 20.359 7.66022 20.292 7.65661 20.2253C7.60692 19.2668 7.40655 18.3221 7.06287 17.426V16.7015C7.06157 15.3347 6.78753 13.9819 6.25681 12.7224C5.72608 11.4628 4.94935 10.3219 3.97209 9.3663C5.76087 10.3214 7.20388 11.8149 8.09679 13.6355C8.75239 14.9658 9.09334 16.4291 9.0933 17.9122V20.4258ZM10.213 20.4258H9.66736V19.2358C9.66736 18.7939 9.66736 18.3521 9.66736 17.9103V17.9092C9.66736 17.7123 9.65998 17.5177 9.64915 17.3237V17.3222C9.57532 15.9608 9.2308 14.6278 8.63573 13.4011C8.51876 10.9625 7.72028 8.60551 6.33098 6.59791C8.63485 8.81539 10.0154 11.8218 10.1958 15.0143C10.2067 15.229 10.2122 15.4439 10.2122 15.6591L10.213 20.4258ZM9.56367 10.1595C9.41766 7.52142 8.78971 4.93235 7.71091 2.52047L7.62101 2.31883C8.15497 3.08759 8.63728 3.89097 9.06476 4.72366C9.63377 5.83335 10.1037 6.99109 10.4691 8.18341C10.7439 9.07771 10.9593 9.98921 11.1137 10.9119C10.8547 11.5714 10.6494 12.2507 10.5 12.9432C10.2934 11.9831 9.97935 11.0493 9.56367 10.1595ZM11.3326 20.4258H10.7871V15.6597C10.7896 14.1474 11.0676 12.6482 11.6074 11.2355C12.2778 9.4851 13.3227 7.90239 14.6688 6.59808C13.2796 8.60561 12.4812 10.9624 12.3642 13.4009C11.7744 14.617 11.4307 15.9377 11.3531 17.2871C11.2888 18.3287 11.3326 19.3825 11.3326 20.4258ZM13.333 20.4258H11.9068V17.9092C11.9072 17.5321 11.9291 17.1554 11.9724 16.7808C12.1564 15.2294 12.7121 13.7453 13.5922 12.4546C14.4724 11.1639 15.651 10.1046 17.028 9.3668C16.0508 10.3223 15.2741 11.4632 14.7433 12.7226C14.2126 13.9821 13.9385 15.3348 13.9371 16.7015V17.4254C13.5934 18.3215 13.393 19.2663 13.3433 20.2248C13.3397 20.292 13.335 20.359 13.333 20.4258ZM18.9188 13.0323C17.1465 14.5646 16.022 16.7126 15.7726 19.0422C15.7325 19.5023 15.716 19.9641 15.7234 20.4259H13.9094C13.917 20.1937 13.9342 19.9622 13.9609 19.7313C14.1431 18.1989 14.7305 16.7428 15.6628 15.513C16.595 14.2832 17.8383 13.3242 19.2645 12.7348L18.9188 13.0323Z" fill="#6C2AD2"/>
</svg>
