<svg width="21" height="13" viewBox="0 0 21 13" fill="none" xmlns="http://www.w3.org/2000/svg">
<path d="M1.3125 11.3786C1.45534 11.3777 1.59803 11.3882 1.73919 11.4101C1.75057 11.4133 1.76208 11.4148 1.77367 11.4171C2.07543 11.478 2.3626 11.5965 2.61944 11.7661C3.13862 12.1105 3.75063 12.2881 4.37351 12.275C4.98997 12.2897 5.59619 12.1156 6.11091 11.776C6.11669 11.773 6.12224 11.77 6.12797 11.7666C6.5118 11.503 6.96903 11.3672 7.43453 11.3786C7.90115 11.3682 8.3594 11.5036 8.74532 11.7661C9.26283 12.1108 9.87366 12.2885 10.4953 12.275C11.1182 12.2869 11.73 12.1096 12.25 11.7666C12.6338 11.503 13.091 11.3672 13.5565 11.3786C14.026 11.3686 14.4868 11.5056 14.8746 11.7704C15.3925 12.1117 16.0019 12.2877 16.622 12.275C17.0399 12.2842 17.4552 12.2068 17.8416 12.0475C18.0257 11.9662 18.204 11.8724 18.3754 11.7668C18.7634 11.5076 19.2209 11.3722 19.6875 11.3786C19.8035 11.3786 19.9148 11.3326 19.9969 11.2505C20.0789 11.1685 20.125 11.0572 20.125 10.9411C20.125 10.8251 20.0789 10.7138 19.9969 10.6318C19.9148 10.5497 19.8035 10.5036 19.6875 10.5036C19.5174 10.5016 19.3474 10.5136 19.1793 10.5395C18.7347 10.6058 18.3095 10.7671 17.9328 11.0125C17.7937 11.0986 17.649 11.1754 17.4997 11.2423C17.2215 11.3559 16.9225 11.4095 16.6222 11.3998C16.1513 11.4117 15.6889 11.2739 15.3013 11.0063C14.9342 10.7694 14.5218 10.6114 14.0903 10.5426L10.4853 5.27793L15.1047 2.9657C15.3079 2.86419 15.4863 2.71931 15.6274 2.54131C15.7685 2.3633 15.8687 2.1565 15.9212 1.93549C15.9736 1.71449 15.9769 1.48468 15.9307 1.26227C15.8846 1.03987 15.7903 0.830295 15.6543 0.648346C15.4363 0.366987 15.1295 0.167581 14.7839 0.0824997C14.4383 -0.00258198 14.074 0.0316548 13.7503 0.179653L7.36785 3.20072C7.14605 3.30582 6.94836 3.45562 6.78718 3.64071C6.62599 3.82581 6.50479 4.04222 6.43118 4.27636C6.35757 4.5105 6.33314 4.75733 6.35941 5.00136C6.38568 5.24539 6.46209 5.48136 6.58385 5.69447L7.43216 7.20306L1.77327 10.5339C1.62048 10.514 1.46658 10.5039 1.3125 10.5036C1.19647 10.5036 1.08519 10.5497 1.00314 10.6318C0.921094 10.7138 0.875 10.8251 0.875 10.9411C0.875 11.0572 0.921094 11.1685 1.00314 11.2505C1.08519 11.3326 1.19647 11.3786 1.3125 11.3786ZM7.87819 7.95552C8.07857 7.83723 8.22424 7.64473 8.28362 7.41976C8.34301 7.19478 8.31132 6.95547 8.19543 6.7537L7.34309 5.2596C7.28127 5.15117 7.24251 5.03114 7.22924 4.90703C7.21597 4.78292 7.22848 4.6574 7.26599 4.53836C7.30349 4.41931 7.36518 4.30929 7.44719 4.21519C7.5292 4.1211 7.62976 4.04496 7.74257 3.99155L14.1237 0.971353C14.2386 0.915799 14.367 0.894128 14.4938 0.908875C14.6207 0.923623 14.7406 0.974178 14.8398 1.05463C14.9389 1.13508 15.0131 1.24209 15.0536 1.36316C15.0942 1.48422 15.0994 1.61432 15.0687 1.73825C15.0464 1.83405 15.003 1.92367 14.9417 2.00055C14.8803 2.07743 14.8025 2.13962 14.714 2.18257L10.0967 4.49397C9.98325 4.54946 9.8831 4.62869 9.80301 4.7263C9.72292 4.8239 9.66476 4.93759 9.63248 5.05966C9.59998 5.18308 9.59441 5.31205 9.61616 5.43782C9.63791 5.56358 9.68646 5.68319 9.75852 5.78853L13.0274 10.5421C12.5917 10.6109 12.1755 10.7712 11.8063 11.0125C11.4213 11.2768 10.9624 11.4125 10.4955 11.4C10.0262 11.4112 9.56536 11.2735 9.17919 11.0065C8.66184 10.6664 8.05354 10.4911 7.43453 10.5036C6.81656 10.4902 6.20921 10.6657 5.69371 11.0068C5.68706 11.0102 5.68024 11.014 5.67363 11.0179C5.29158 11.2796 4.83638 11.4133 4.37351 11.3999C3.90626 11.4111 3.44731 11.2751 3.06163 11.0111C3.00038 10.9751 2.93672 10.9386 2.87157 10.9023L7.87819 7.95552Z" fill="#6C2AD2"/>
</svg>
