<svg width="14" height="14" viewBox="0 0 14 14" fill="none" xmlns="http://www.w3.org/2000/svg">
<path d="M8.56348 13.6205C9.98645 14.3179 11.6984 14.0278 12.8236 12.9025L13.4697 12.2564C13.8206 11.9059 13.8207 11.3382 13.4699 10.9875L10.9733 8.49113C10.6231 8.14043 10.0552 8.13994 9.70459 8.49101L8.6438 9.55193C8.43604 9.75969 8.11536 9.80205 7.88147 9.65276C7.50013 9.40898 7.12915 9.14018 6.77893 8.85381C6.64527 8.74455 6.44849 8.76433 6.33924 8.89787C6.22998 9.03154 6.24976 9.22844 6.38331 9.33757C6.75232 9.63933 7.14307 9.92253 7.54505 10.1794C8.02417 10.4854 8.67212 10.4074 9.0857 9.99382L10.1467 8.93279C10.2528 8.82658 10.4247 8.82634 10.5313 8.93291L13.028 11.4294C13.1343 11.5358 13.1345 11.7079 13.028 11.8143L12.3817 12.4606C11.4443 13.398 10.0205 13.6386 8.8385 13.0594C4.5083 10.936 2.15235 7.56902 0.938481 5.11833C0.357792 3.94633 0.598881 2.52788 1.53846 1.58855L2.17054 0.956589C2.27649 0.850388 2.44849 0.850021 2.55494 0.956711L5.05188 3.45354C5.1576 3.55913 5.1587 3.73125 5.05164 3.83806L3.99085 4.89897C3.57727 5.31255 3.49927 5.96049 3.8053 6.43974C3.9856 6.72185 4.17994 7.00017 4.38306 7.26689C4.48755 7.40422 4.6836 7.43071 4.82093 7.32622C4.95826 7.22173 4.98487 7.02568 4.88025 6.88823C4.68763 6.63518 4.50306 6.37102 4.33191 6.10332C4.18262 5.86931 4.22498 5.54863 4.43274 5.34087L5.49341 4.2802C5.84412 3.92998 5.84449 3.36198 5.49366 3.01152L2.99695 0.514938C2.64685 0.16423 2.07886 0.163742 1.7284 0.514816L1.09656 1.14665C-0.0328327 2.27568 -0.321407 3.98332 0.378422 5.3958C1.63538 7.93327 4.07557 11.4198 8.56348 13.6205Z" fill="#6C2AD2"/>
</svg>
